<svg width="140" height="52" viewBox="0 0 140 52" fill="none" xmlns="http://www.w3.org/2000/svg">
<mask id="mask0_493_1219" style="mask-type:alpha" maskUnits="userSpaceOnUse" x="0" y="0" width="140" height="52">
<rect width="140" height="52" fill="#D9D9D9"/>
</mask>
<g mask="url(#mask0_493_1219)">
<path d="M16.5503 49.0001C19.3899 49.0001 21.6918 48.7651 21.6918 48.4752C21.6918 48.1854 19.3899 47.9504 16.5503 47.9504C13.7107 47.9504 11.4088 48.1854 11.4088 48.4752C11.4088 48.7651 13.7107 49.0001 16.5503 49.0001Z" fill="#333333"/>
<path d="M15.2601 4.97917C15.5614 4.97917 15.8057 4.7349 15.8057 4.43357C15.8057 4.13224 15.5614 3.88797 15.2601 3.88797C14.9588 3.88797 14.7145 4.13224 14.7145 4.43357C14.7145 4.7349 14.9588 4.97917 15.2601 4.97917Z" fill="#DD73B5"/>
<path d="M30.9648 18.6607C31.5211 18.6607 31.972 18.2098 31.972 17.6535C31.972 17.0972 31.5211 16.6462 30.9648 16.6462C30.4085 16.6462 29.9575 17.0972 29.9575 17.6535C29.9575 18.2098 30.4085 18.6607 30.9648 18.6607Z" fill="#CD2235"/>
<path d="M14.0939 9.76683C14.3953 9.76683 14.6395 9.52256 14.6395 9.22123C14.6395 8.9199 14.3953 8.67563 14.0939 8.67563C13.7926 8.67563 13.5483 8.9199 13.5483 9.22123C13.5483 9.52256 13.7926 9.76683 14.0939 9.76683Z" fill="#95CFEF"/>
<path d="M10.5799 5.34974C10.3543 5.39374 10.1314 5.44076 9.90634 5.47919C9.75414 5.50549 9.60042 5.53279 9.4467 5.53684C9.20955 5.54341 9.01082 5.44632 8.87025 5.25367C8.71198 5.03674 8.76305 4.78139 8.91172 4.60036C8.98402 4.51238 9.07555 4.45473 9.19134 4.4335C9.16909 4.33793 9.17668 4.2459 9.21208 4.1564C9.32585 3.86716 9.6707 3.68311 10.0054 3.88334C10.1774 3.9865 10.2896 4.13466 10.3458 4.3268C10.4423 4.657 10.5096 4.99376 10.5778 5.33002C10.5784 5.33356 10.5778 5.33761 10.5789 5.34873L10.5799 5.34974Z" fill="#FF7044"/>
<path d="M10.8157 5.4949C11.0412 5.45091 11.2642 5.40388 11.4892 5.36545C11.6414 5.33916 11.7951 5.31185 11.9488 5.30781C12.186 5.30123 12.3847 5.39832 12.5253 5.59097C12.6836 5.8079 12.6325 6.06326 12.4838 6.24428C12.4115 6.33226 12.32 6.38991 12.2042 6.41115C12.2264 6.50672 12.2189 6.59874 12.1835 6.68825C12.0697 6.97748 11.7248 7.16154 11.3901 6.9613C11.2182 6.85815 11.1059 6.70999 11.0498 6.51784C10.9532 6.18765 10.886 5.85088 10.8177 5.51462C10.8172 5.51108 10.8177 5.50704 10.8167 5.49591L10.8157 5.4949Z" fill="#FF7044"/>
<path d="M10.7686 5.30213C10.7246 5.07661 10.6776 4.85361 10.6391 4.6286C10.6128 4.4764 10.5855 4.32268 10.5815 4.16896C10.5749 3.93181 10.672 3.73308 10.8647 3.59251C11.0816 3.43424 11.3369 3.48531 11.518 3.63398C11.6059 3.70628 11.6636 3.79781 11.6848 3.9136C11.7804 3.89135 11.8724 3.89894 11.9619 3.93433C12.2512 4.04811 12.4352 4.39296 12.235 4.72771C12.1318 4.89963 11.9837 5.01188 11.7915 5.06801C11.4613 5.16459 11.1246 5.23184 10.7883 5.30011C10.7848 5.30061 10.7807 5.30011 10.7696 5.30112L10.7686 5.30213Z" fill="#FF7044"/>
<path d="M10.6247 5.53708C10.6687 5.7626 10.7157 5.98559 10.7541 6.21061C10.7804 6.36281 10.8077 6.51653 10.8118 6.67025C10.8183 6.9074 10.7213 7.10613 10.5286 7.2467C10.3117 7.40497 10.0563 7.3539 9.8753 7.20523C9.78731 7.13293 9.72967 7.0414 9.70843 6.92561C9.61286 6.94786 9.52083 6.94027 9.43133 6.90487C9.1421 6.7911 8.95804 6.44625 9.15828 6.1115C9.26143 5.93958 9.40959 5.82732 9.60174 5.7712C9.93193 5.67462 10.2687 5.60736 10.605 5.5391C10.6085 5.5386 10.6125 5.5391 10.6237 5.53809L10.6247 5.53708Z" fill="#FF7044"/>
<g style="mix-blend-mode:multiply">
<path d="M23.9119 4.04527C23.8214 3.94869 23.7303 3.85413 23.6429 3.75654C23.5837 3.6903 23.5235 3.62356 23.4745 3.55024C23.3986 3.43646 23.3855 3.31005 23.4366 3.18263C23.4937 3.03902 23.6343 2.98593 23.7678 3.00312C23.833 3.01171 23.8886 3.03851 23.9346 3.08857C23.9746 3.04863 24.0216 3.02436 24.0762 3.01424C24.2522 2.98137 24.4474 3.09312 24.4519 3.31764C24.4539 3.43292 24.4165 3.53304 24.3397 3.61901C24.2082 3.76716 24.0646 3.90268 23.9215 4.0387C23.92 4.04022 23.9179 4.04123 23.9129 4.04477L23.9119 4.04527Z" fill="#1FBAAC"/>
</g>
<g style="mix-blend-mode:multiply">
<path d="M23.913 4.2045C24.0036 4.30108 24.0946 4.39564 24.1821 4.49323C24.2412 4.55947 24.3014 4.62621 24.3504 4.69953C24.4263 4.81331 24.4394 4.93972 24.3884 5.06715C24.3312 5.21075 24.1906 5.26385 24.0572 5.24665C23.9919 5.23806 23.9363 5.21126 23.8903 5.1612C23.8503 5.20114 23.8033 5.22542 23.7487 5.23553C23.5727 5.2684 23.3776 5.15665 23.373 4.93214C23.371 4.81685 23.4084 4.71673 23.4853 4.63077C23.6167 4.48261 23.7603 4.34709 23.9034 4.21107C23.905 4.20955 23.907 4.20854 23.912 4.205L23.913 4.2045Z" fill="#1FBAAC"/>
</g>
<g style="mix-blend-mode:multiply">
<path d="M23.9927 4.12315C24.0893 4.03264 24.1838 3.94162 24.2814 3.85414C24.3476 3.79498 24.4144 3.73481 24.4877 3.68576C24.6015 3.60991 24.7279 3.59677 24.8553 3.64784C24.9989 3.70498 25.052 3.84555 25.0348 3.97904C25.0262 4.04427 24.9994 4.09989 24.9494 4.14591C24.9893 4.18585 25.0136 4.23288 25.0237 4.28749C25.0566 4.46346 24.9448 4.65864 24.7203 4.66319C24.605 4.66521 24.5049 4.6278 24.4189 4.55094C24.2708 4.41947 24.1353 4.27586 23.9992 4.13276C23.9977 4.13124 23.9967 4.12922 23.9932 4.12416L23.9927 4.12315Z" fill="#1FBAAC"/>
</g>
<g style="mix-blend-mode:multiply">
<path d="M23.834 4.12462C23.7374 4.21513 23.6428 4.30615 23.5452 4.39363C23.479 4.45279 23.4123 4.51296 23.3389 4.56201C23.2252 4.63786 23.0987 4.65101 22.9713 4.59994C22.8277 4.5428 22.7746 4.40222 22.7918 4.26873C22.8004 4.2035 22.8272 4.14788 22.8773 4.10187C22.8373 4.06192 22.8131 4.01489 22.8029 3.96028C22.7701 3.78431 22.8818 3.58913 23.1063 3.58458C23.2216 3.58256 23.3217 3.61998 23.4077 3.69684C23.5559 3.82831 23.6914 3.97191 23.8274 4.11501C23.8289 4.11653 23.8299 4.11855 23.8335 4.12361L23.834 4.12462Z" fill="#1FBAAC"/>
</g>
<path d="M19.2222 7.77516C18.9082 7.62751 18.5942 7.48643 18.2858 7.33322C18.0769 7.22956 17.8656 7.1259 17.6744 6.99443C17.3796 6.79166 17.2239 6.49535 17.2239 6.13583C17.2239 5.7308 17.5136 5.46432 17.8564 5.37634C18.0233 5.33336 18.1856 5.34499 18.3459 5.42235C18.4046 5.28582 18.4951 5.18065 18.618 5.10278C19.0144 4.85147 19.5989 4.93439 19.8285 5.47696C19.9463 5.75608 19.9514 6.03622 19.8487 6.3209C19.6723 6.80936 19.4543 7.27962 19.2379 7.75089C19.2354 7.75595 19.2318 7.7605 19.2222 7.77466V7.77516Z" fill="#B4D435"/>
<path d="M19.3815 8.16232C19.6955 8.30997 20.0095 8.45105 20.3179 8.60427C20.5268 8.70792 20.7381 8.81158 20.9293 8.94305C21.2241 9.14582 21.3798 9.44214 21.3798 9.80166C21.3798 10.2067 21.0901 10.4732 20.7472 10.5611C20.5804 10.6041 20.4181 10.5925 20.2578 10.5151C20.1991 10.6517 20.1086 10.7568 19.9857 10.8347C19.5893 11.086 19.0048 11.0031 18.7752 10.4605C18.6574 10.1814 18.6523 9.90127 18.755 9.61659C18.9314 9.12812 19.1494 8.65786 19.3658 8.18659C19.3683 8.18154 19.3719 8.17699 19.3815 8.16283V8.16232Z" fill="#B4D435"/>
<path d="M19.4955 7.88568C19.6431 7.57167 19.7842 7.25765 19.9374 6.9492C20.0411 6.74037 20.1447 6.52901 20.2762 6.33787C20.479 6.04307 20.7753 5.88733 21.1348 5.88733C21.5398 5.88733 21.8063 6.17707 21.8943 6.5199C21.9373 6.68677 21.9257 6.84908 21.8483 7.00938C21.9848 7.06803 22.09 7.15855 22.1679 7.28142C22.4192 7.67785 22.3363 8.26239 21.7937 8.49196C21.5146 8.60977 21.2344 8.61483 20.9497 8.51218C20.4613 8.33571 19.991 8.11777 19.5198 7.90135C19.5147 7.89882 19.5101 7.89528 19.496 7.88568H19.4955Z" fill="#B4D435"/>
<path d="M19.1113 8.04364C18.9636 8.35765 18.8226 8.67166 18.6693 8.98011C18.5657 9.18895 18.462 9.40031 18.3306 9.59145C18.1278 9.88625 17.8315 10.042 17.4719 10.042C17.0669 10.042 16.8004 9.75225 16.7125 9.40941C16.6695 9.24255 16.6811 9.08023 16.7585 8.91994C16.6219 8.86128 16.5168 8.77077 16.4389 8.6479C16.1876 8.25146 16.2705 7.66693 16.8131 7.43736C17.0922 7.31954 17.3723 7.31448 17.657 7.41713C18.1455 7.59361 18.6157 7.81154 19.087 8.02796C19.0921 8.03049 19.0966 8.03403 19.1108 8.04364H19.1113Z" fill="#B4D435"/>
<path d="M24.2642 11.1169C24.7635 11.1169 25.1683 10.7121 25.1683 10.2128C25.1683 9.71344 24.7635 9.30865 24.2642 9.30865C23.7649 9.30865 23.3601 9.71344 23.3601 10.2128C23.3601 10.7121 23.7649 11.1169 24.2642 11.1169Z" fill="url(#paint0_linear_493_1219)"/>
<path d="M7.87032 12.1529C8.78994 12.1529 9.53544 11.4074 9.53544 10.4878C9.53544 9.56819 8.78994 8.82269 7.87032 8.82269C6.9507 8.82269 6.2052 9.56819 6.2052 10.4878C6.2052 11.4074 6.9507 12.1529 7.87032 12.1529Z" fill="#B4D435"/>
<mask id="mask1_493_1219" style="mask-type:luminance" maskUnits="userSpaceOnUse" x="1" y="6" width="32" height="40">
<path d="M16.5499 6.22504C7.96185 6.22504 1 13.3254 1 22.0839C1 30.8423 7.14927 38.4246 16.5499 45.5088C25.9505 38.4246 32.0998 30.8423 32.0998 22.0839C32.0998 13.3254 25.1379 6.22504 16.5499 6.22504ZM16.5499 30.7048C11.6825 30.7048 7.73633 26.7587 7.73633 21.8912C7.73633 17.0238 11.6825 13.0777 16.5499 13.0777C21.4173 13.0777 25.3635 17.0238 25.3635 21.8912C25.3635 26.7587 21.4173 30.7048 16.5499 30.7048Z" fill="white"/>
</mask>
<g mask="url(#mask1_493_1219)">
<g style="mix-blend-mode:multiply">
<path d="M27.9717 30.4427C30.2415 30.4427 32.0816 28.6026 32.0816 26.3328C32.0816 24.0629 30.2415 22.2228 27.9717 22.2228C25.7018 22.2228 23.8617 24.0629 23.8617 26.3328C23.8617 28.6026 25.7018 30.4427 27.9717 30.4427Z" fill="#FFD67B"/>
</g>
<g style="mix-blend-mode:multiply">
<path d="M6.44998 34.5025C9.00722 34.5025 11.0803 32.4294 11.0803 29.8722C11.0803 27.315 9.00722 25.2419 6.44998 25.2419C3.89275 25.2419 1.8197 27.315 1.8197 29.8722C1.8197 32.4294 3.89275 34.5025 6.44998 34.5025Z" fill="#FD8D2B"/>
</g>
<g style="mix-blend-mode:multiply">
<path d="M8.34941 41.7211C10.7852 41.7211 12.7597 39.7465 12.7597 37.3107C12.7597 34.875 10.7852 32.9004 8.34941 32.9004C5.91365 32.9004 3.93909 34.875 3.93909 37.3107C3.93909 39.7465 5.91365 41.7211 8.34941 41.7211Z" fill="#4ED8C7"/>
</g>
<g style="mix-blend-mode:multiply">
<path d="M17.6328 39.7644C20.9728 39.7644 23.6805 37.0568 23.6805 33.7168C23.6805 30.3767 20.9728 27.6691 17.6328 27.6691C14.2928 27.6691 11.5852 30.3767 11.5852 33.7168C11.5852 37.0568 14.2928 39.7644 17.6328 39.7644Z" fill="#FCC024"/>
</g>
<g style="mix-blend-mode:multiply">
<path d="M16.7325 48.2083C19.443 48.2083 21.6404 46.011 21.6404 43.3004C21.6404 40.5899 19.443 38.3925 16.7325 38.3925C14.0219 38.3925 11.8246 40.5899 11.8246 43.3004C11.8246 46.011 14.0219 48.2083 16.7325 48.2083Z" fill="#FD8D2B"/>
</g>
<g style="mix-blend-mode:multiply">
<path d="M24.0153 38.896C26.2025 38.896 27.9756 37.1229 27.9756 34.9357C27.9756 32.7485 26.2025 30.9754 24.0153 30.9754C21.8281 30.9754 20.0551 32.7485 20.0551 34.9357C20.0551 37.1229 21.8281 38.896 24.0153 38.896Z" fill="#FFD67B"/>
</g>
<g style="mix-blend-mode:multiply">
<path d="M24.3747 33.2113C26.1843 33.2113 27.6513 31.7443 27.6513 29.9346C27.6513 28.125 26.1843 26.658 24.3747 26.658C22.565 26.658 21.098 28.125 21.098 29.9346C21.098 31.7443 22.565 33.2113 24.3747 33.2113Z" fill="#FD8D2B"/>
</g>
<g style="mix-blend-mode:multiply">
<path d="M29.3098 35.2045C31.1195 35.2045 32.5865 33.7375 32.5865 31.9278C32.5865 30.1182 31.1195 28.6512 29.3098 28.6512C27.5002 28.6512 26.0332 30.1182 26.0332 31.9278C26.0332 33.7375 27.5002 35.2045 29.3098 35.2045Z" fill="#E27181"/>
</g>
<g style="mix-blend-mode:multiply">
<path d="M4.85933 29.3074C7.35262 29.3074 9.37382 27.2861 9.37382 24.7929C9.37382 22.2996 7.35262 20.2784 4.85933 20.2784C2.36605 20.2784 0.344849 22.2996 0.344849 24.7929C0.344849 27.2861 2.36605 29.3074 4.85933 29.3074Z" fill="#E27181"/>
</g>
<g style="mix-blend-mode:multiply">
<path d="M16.3696 17.5901C17.9734 17.5901 19.2735 16.29 19.2735 14.6862C19.2735 13.0824 17.9734 11.7822 16.3696 11.7822C14.7657 11.7822 13.4656 13.0824 13.4656 14.6862C13.4656 16.29 14.7657 17.5901 16.3696 17.5901Z" fill="#E27181"/>
</g>
<g style="mix-blend-mode:multiply">
<path d="M11.9843 34.5673C13.6649 34.5673 15.0273 33.2049 15.0273 31.5243C15.0273 29.8436 13.6649 28.4812 11.9843 28.4812C10.3037 28.4812 8.94128 29.8436 8.94128 31.5243C8.94128 33.2049 10.3037 34.5673 11.9843 34.5673Z" fill="#B4D435"/>
</g>
<g style="mix-blend-mode:multiply">
<path d="M21.2947 42.2531C22.9985 42.2531 24.3797 40.8719 24.3797 39.1681C24.3797 37.4643 22.9985 36.0831 21.2947 36.0831C19.5909 36.0831 18.2097 37.4643 18.2097 39.1681C18.2097 40.8719 19.5909 42.2531 21.2947 42.2531Z" fill="#95CFEF"/>
</g>
<g style="mix-blend-mode:multiply">
<path d="M2.62484 22.9357C4.22335 22.9357 5.5192 21.6399 5.5192 20.0413C5.5192 18.4428 4.22335 17.147 2.62484 17.147C1.02632 17.147 -0.269531 18.4428 -0.269531 20.0413C-0.269531 21.6399 1.02632 22.9357 2.62484 22.9357Z" fill="#18638C"/>
</g>
<g style="mix-blend-mode:multiply">
<path d="M9.31015 23.1286C12.1293 23.1286 14.4147 20.8432 14.4147 18.024C14.4147 15.2048 12.1293 12.9194 9.31015 12.9194C6.49097 12.9194 4.20557 15.2048 4.20557 18.024C4.20557 20.8432 6.49097 23.1286 9.31015 23.1286Z" fill="#FCC024"/>
</g>
<g style="mix-blend-mode:multiply">
<path d="M4.1274 19.2331C6.15962 19.2331 7.80705 17.5857 7.80705 15.5535C7.80705 13.5212 6.15962 11.8738 4.1274 11.8738C2.09519 11.8738 0.447754 13.5212 0.447754 15.5535C0.447754 17.5857 2.09519 19.2331 4.1274 19.2331Z" fill="#FFD67B"/>
</g>
<g style="mix-blend-mode:multiply">
<path d="M11.9411 43.7172C13.7507 43.7172 15.2177 42.2502 15.2177 40.4406C15.2177 38.6309 13.7507 37.1639 11.9411 37.1639C10.1314 37.1639 8.66443 38.6309 8.66443 40.4406C8.66443 42.2502 10.1314 43.7172 11.9411 43.7172Z" fill="#E27181"/>
</g>
<g style="mix-blend-mode:multiply">
<path d="M21.2986 17.0391C22.7064 17.0391 23.8476 15.8979 23.8476 14.4901C23.8476 13.0823 22.7064 11.9411 21.2986 11.9411C19.8909 11.9411 18.7496 13.0823 18.7496 14.4901C18.7496 15.8979 19.8909 17.0391 21.2986 17.0391Z" fill="#1FBAAC"/>
</g>
<g style="mix-blend-mode:multiply">
<path d="M12.3537 15.822C13.7484 15.822 14.879 14.6914 14.879 13.2968C14.879 11.9021 13.7484 10.7715 12.3537 10.7715C10.9591 10.7715 9.82849 11.9021 9.82849 13.2968C9.82849 14.6914 10.9591 15.822 12.3537 15.822Z" fill="#18638C"/>
</g>
<g style="mix-blend-mode:multiply">
<path d="M24.3319 23.3512C26.8408 23.3512 28.8747 21.3173 28.8747 18.8084C28.8747 16.2994 26.8408 14.2656 24.3319 14.2656C21.8229 14.2656 19.7891 16.2994 19.7891 18.8084C19.7891 21.3173 21.8229 23.3512 24.3319 23.3512Z" fill="#76BDE5"/>
</g>
<g style="mix-blend-mode:multiply">
<path d="M29.5348 24.187C30.8248 24.187 31.8705 23.1414 31.8705 21.8514C31.8705 20.5615 30.8248 19.5158 29.5348 19.5158C28.2449 19.5158 27.1992 20.5615 27.1992 21.8514C27.1992 23.1414 28.2449 24.187 29.5348 24.187Z" fill="#FD8D2B"/>
</g>
</g>
<path d="M85.2612 44.2104C84.3995 44.354 83.6092 44.4617 82.8194 44.4617C81.2392 44.4617 80.0903 44.1386 79.3 43.5283C78.5102 42.882 78.1147 41.8045 78.1147 40.3679V15.6257C78.1147 15.0872 78.2224 14.6923 78.4738 14.4764C78.6892 14.261 79.0482 14.1533 79.6231 14.1533H96.5009C97.0394 14.1533 97.4343 14.261 97.6861 14.4764C97.9015 14.6918 98.0092 15.0867 98.0092 15.6257V42.9892C98.0092 43.5278 97.9015 43.9227 97.6861 44.1386C97.4348 44.354 97.0399 44.4617 96.5009 44.4617H93.5564C92.982 44.4617 92.623 44.354 92.4071 44.1386C92.1558 43.9232 92.0481 43.5283 92.0481 42.9892V16.8823C92.0481 16.4874 91.9763 16.2361 91.8686 16.0924C91.7249 16.0206 91.4377 15.9488 91.0787 15.9488H85.0458C84.6867 15.9488 84.4354 16.0206 84.2918 16.0924C84.1482 16.2361 84.0764 16.4874 84.0764 16.8823V39.5058C84.0764 40.152 84.1841 40.5833 84.4354 40.7987C84.4354 40.7987 86.3852 42.4108 89.629 41.3317C90.0735 41.184 90.389 41.2897 90.5159 41.6255L90.6722 42.119C90.7991 42.4548 90.6949 42.6863 90.3936 42.8234C89.6917 43.1809 88.7391 43.5035 87.6135 43.776C86.4191 44.0284 85.1489 44.2539 83.7639 44.4152" fill="white"/>
<path d="M107.382 28.338H111.476C111.763 28.338 111.907 28.4816 111.907 28.7329V29.7387C111.907 30.0259 111.763 30.1336 111.476 30.1336H107.382V43.3484C107.382 43.8869 107.274 44.2818 107.059 44.4977C106.808 44.7131 106.413 44.8208 105.874 44.8208H102.929C102.355 44.8208 101.996 44.7131 101.78 44.4977C101.528 44.2823 101.421 43.8874 101.421 43.3484V15.2668C101.421 14.7283 101.528 14.3334 101.78 14.1175C101.995 13.9021 102.354 13.7944 102.929 13.7944H105.874C106.412 13.7944 106.807 13.9021 107.059 14.1175C107.274 14.3329 107.382 14.7278 107.382 15.2668V28.338Z" fill="white"/>
<path d="M58.7589 17.1697V16.1645C58.7589 15.9131 58.6153 15.7695 58.3281 15.7695H52.8266C53.2205 15.6912 53.5593 15.5015 53.8435 15.1951C54.5119 14.4741 54.2369 13.528 53.5825 13.0967C53.3798 12.9632 53.1578 12.8969 52.91 12.9015C52.9176 12.6047 52.8236 12.3493 52.6441 12.1248C52.2749 11.6641 51.6712 11.4057 51.0548 11.6833C50.5077 11.9301 50.1643 12.37 50.0576 12.9576C49.9884 13.3384 49.9762 13.7318 49.9616 14.1201C49.9413 14.6677 49.9408 15.2164 49.9327 15.768H49.4488C49.4549 14.92 49.462 14.0721 49.3967 13.2251C49.3578 12.7215 49.1581 12.2982 48.7874 11.9549C48.0664 11.2864 47.1203 11.5615 46.6895 12.2158C46.556 12.4186 46.4897 12.6406 46.4943 12.8883C46.1975 12.8807 45.9421 12.9748 45.7176 13.1543C45.2569 13.5234 44.9986 14.1272 45.2762 14.7436C45.5229 15.2907 45.9628 15.634 46.5504 15.7407C46.6081 15.7513 46.6667 15.7599 46.7249 15.768H41.0909C40.8036 15.768 40.66 15.9116 40.66 16.1629V17.1682C40.66 17.4554 40.8036 17.5631 41.0909 17.5631H58.3276C58.6148 17.5631 58.7584 17.4554 58.7584 17.1682L58.7589 17.1697Z" fill="#FF7044"/>
<path d="M60.6621 32.4677C60.8775 32.6831 61.2365 32.7908 61.8115 32.7908H64.2533C64.7918 32.7908 65.1867 32.6831 65.4385 32.4677C65.6539 32.2523 65.7616 31.8933 65.7616 31.3183V24.1724H68.6702V31.6779C68.6702 32.2523 68.7779 32.6113 69.0292 32.8272C69.2446 33.0426 69.6036 33.1503 70.1785 33.1503H72.6203C73.1589 33.1503 73.5538 33.0426 73.8056 32.8272C74.021 32.6118 74.1287 32.2528 74.1287 31.6779V15.2668C74.1287 14.7283 74.021 14.3334 73.8056 14.1175C73.5543 13.9021 73.1594 13.7944 72.6203 13.7944H70.1785C69.6041 13.7944 69.2451 13.9021 69.0292 14.1175C68.7779 14.3329 68.6702 14.7278 68.6702 15.2668V22.3774H65.7616V15.2668C65.7616 14.7283 65.6539 14.3334 65.4385 14.1175C65.1872 13.9021 64.7923 13.7944 64.2533 13.7944H61.8115C61.237 13.7944 60.878 13.9021 60.6621 14.1175C60.4108 14.3329 60.3031 14.7278 60.3031 15.2668V31.3188C60.3031 31.8933 60.4108 32.2523 60.6621 32.4682V32.4677Z" fill="#FF7044"/>
<path d="M46.4775 32.001C47.4468 32.2882 48.5244 32.4318 49.7096 32.4318C50.8949 32.4318 51.9719 32.2882 52.9777 32.001C53.947 31.7497 54.8092 31.3548 55.5631 30.7798C56.2811 30.2772 56.8202 29.5946 57.251 28.733C57.6459 27.9431 57.8613 26.9733 57.8613 25.8244C57.8613 24.7469 57.6459 23.7775 57.251 22.9159C56.8202 22.0902 56.2816 21.4075 55.5631 20.8331C54.8092 20.3305 53.947 19.8997 52.9777 19.612C51.9724 19.3606 50.859 19.217 49.7096 19.217C48.5603 19.217 47.4473 19.3606 46.4775 19.612C45.4717 19.8992 44.6101 20.33 43.8921 20.8331C43.1382 21.4075 42.5632 22.0902 42.1683 22.9159C41.7375 23.7775 41.558 24.7474 41.558 25.8244C41.558 26.9738 41.7375 27.9431 42.1683 28.733C42.5632 29.5946 43.1376 30.2772 43.8921 30.7798C44.6101 31.3543 45.4723 31.7492 46.4775 32.001ZM47.6628 22.1615C48.0936 21.4075 48.7762 21.0121 49.7096 21.0121C50.6431 21.0121 51.3257 21.407 51.7924 22.1615C52.2233 22.9513 52.4387 24.1725 52.4387 25.8244C52.4387 27.4764 52.2233 28.733 51.7924 29.4874C51.3257 30.2772 50.6431 30.6367 49.7096 30.6367C48.7762 30.6367 48.0936 30.2777 47.6628 29.4874C47.196 28.7335 46.9806 27.5123 46.9806 25.8244C46.9806 24.1366 47.196 22.9518 47.6628 22.1615Z" fill="#FF7044"/>
<path d="M70.8609 35.7352C68.2755 34.8017 64.3254 34.3345 58.9386 34.3345C53.5519 34.3345 49.5658 34.8012 47.0522 35.7352C44.4668 36.7045 43.2097 38.1052 43.2097 39.9367C43.2097 41.7681 44.4668 43.1688 47.0522 44.1381C49.5658 45.0716 53.5519 45.5388 58.9386 45.5388C64.3254 45.5388 68.2755 45.0721 70.8609 44.1381C73.3745 43.1688 74.6675 41.7681 74.6675 39.9367C74.6675 38.1052 73.3745 36.7045 70.8609 35.7352ZM66.3363 42.7375C64.828 43.3837 62.3862 43.7427 58.9386 43.7427C55.4911 43.7427 53.0134 43.3837 51.5409 42.7375C50.0325 42.0553 49.3145 41.1214 49.3145 39.9367C49.3145 38.7519 50.0325 37.818 51.5409 37.1358C53.0134 36.4896 55.4911 36.1306 58.9386 36.1306C62.3862 36.1306 64.828 36.4896 66.3363 37.1358C67.8088 37.818 68.5627 38.7519 68.5627 39.9367C68.5627 41.1214 67.8088 42.0553 66.3363 42.7375Z" fill="#FF7044"/>
<path d="M139.221 43.3484C139.221 43.8869 139.113 44.2818 138.898 44.4977C138.647 44.7131 138.252 44.8208 137.713 44.8208H134.768C134.194 44.8208 133.835 44.7131 133.619 44.4977C133.367 44.2823 133.26 43.8874 133.26 43.3484V15.2668C133.26 14.7283 133.367 14.3334 133.619 14.1175C133.834 13.9021 134.193 13.7944 134.768 13.7944H137.713C138.251 13.7944 138.646 13.9021 138.898 14.1175C139.113 14.3329 139.221 14.7278 139.221 15.2668V43.3489V43.3484Z" fill="white"/>
<path d="M125.21 44.3491C126.6 44.1787 127.865 43.9582 129.059 43.7059C130.185 43.4333 131.138 43.1112 131.839 42.7532C132.141 42.6162 132.245 42.3846 132.118 42.0488L131.962 41.5553C131.835 41.2196 131.524 41.1296 131.075 41.2615C130.423 41.4466 129.702 41.612 128.878 41.7475C128.019 41.8729 127.102 41.9437 126.194 41.9801C125.208 42.0311 124.241 42.0129 123.294 41.926C122.288 41.7844 121.361 41.6286 120.464 41.3692C119.411 41.0724 119 40.767 118.905 40.6861C118.656 40.4697 118.55 40.0399 118.55 39.3972V15.2668C118.55 14.7283 118.442 14.3334 118.226 14.1175C117.975 13.9021 117.58 13.7944 117.041 13.7944H114.097C113.522 13.7944 113.163 13.9021 112.947 14.1175C112.696 14.3329 112.588 14.7278 112.588 15.2668V40.368H112.59C112.61 41.749 113.004 42.7891 113.774 43.4187C114.266 43.7989 114.898 44.0679 115.688 44.2161C115.688 44.2161 119.92 44.9978 125.21 44.3491Z" fill="white"/>
</g>
<defs>
<linearGradient id="paint0_linear_493_1219" x1="25.1341" y1="10.1718" x2="23.3254" y2="10.1693" gradientUnits="userSpaceOnUse">
<stop stop-color="#FECF00"/>
<stop offset="1" stop-color="#FDC300"/>
</linearGradient>
</defs>
</svg>
