<svg width="20" height="20" viewBox="0 0 20 20" fill="none" xmlns="http://www.w3.org/2000/svg">
<mask id="mask0_320_1550" style="mask-type:alpha" maskUnits="userSpaceOnUse" x="0" y="0" width="20" height="20">
<rect width="20" height="20" fill="#D9D9D9"/>
</mask>
<g mask="url(#mask0_320_1550)">
<path d="M3.74583 3.62692H7.25273L8.38291 6.45275L6.56697 7.66337C6.46004 7.73472 6.37236 7.83136 6.31173 7.94472C6.2511 8.05808 6.21939 8.18465 6.21941 8.31321C6.22175 8.38663 6.21941 8.31399 6.21941 8.31399V8.33039C6.21981 8.36532 6.22138 8.40022 6.22409 8.43505C6.22878 8.4991 6.23659 8.58579 6.25143 8.6928C6.28189 8.90368 6.34047 9.19423 6.4545 9.53633C6.68413 10.2237 7.13402 11.1133 8.01035 11.9896C8.88669 12.8659 9.7763 13.3158 10.4628 13.5454C10.8057 13.6595 11.0955 13.7173 11.3079 13.7485C11.4279 13.7653 11.5486 13.7757 11.6696 13.7798L11.6797 13.7805H11.686C11.686 13.7805 11.7734 13.7759 11.6867 13.7805C11.8318 13.7805 11.9739 13.74 12.0972 13.6637C12.2205 13.5875 12.3202 13.4783 12.385 13.3486L12.9083 12.302L16.373 12.88V16.2541C14.7242 16.4923 10.2707 16.7274 6.77161 13.2283C3.27251 9.72925 3.50683 5.27493 3.74583 3.62692ZM7.83852 8.6928L9.24988 7.75241C9.54804 7.55354 9.76874 7.25818 9.87497 6.91588C9.9812 6.57359 9.9665 6.20517 9.83332 5.87243L8.70314 3.0466C8.58717 2.75675 8.387 2.50831 8.12848 2.33331C7.86995 2.15832 7.56492 2.0648 7.25273 2.06482H3.70521C2.99524 2.06482 2.32744 2.55766 2.21107 3.32777C1.94551 5.07889 1.58545 10.251 5.66721 14.3327C9.74897 18.4145 14.9211 18.0537 16.6722 17.7889C17.4423 17.6717 17.9351 17.0047 17.9351 16.2947V12.88C17.9352 12.5102 17.804 12.1524 17.5651 11.8702C17.3261 11.5881 16.9947 11.3998 16.63 11.339L13.1653 10.7618C12.8357 10.7068 12.4973 10.7589 12.1995 10.9104C11.9018 11.062 11.6605 11.305 11.511 11.6038L11.2408 12.145C11.1452 12.1215 11.0506 12.0941 10.9572 12.063C10.473 11.9021 9.80052 11.571 9.11475 10.8852C8.42899 10.1994 8.09783 9.52696 7.93693 9.04192C7.89852 8.92727 7.86594 8.81074 7.8393 8.6928H7.83852Z" fill="#D9D9D9" stroke="white" stroke-width="0.1" stroke-linejoin="round"/>
</g>
</svg>
