<svg width="20" height="20" viewBox="0 0 20 20" fill="none" xmlns="http://www.w3.org/2000/svg">
<mask id="mask0_320_1554" style="mask-type:alpha" maskUnits="userSpaceOnUse" x="0" y="0" width="20" height="20">
<rect y="20" width="20" height="20" transform="rotate(-90 0 20)" fill="#D9D9D9"/>
</mask>
<g mask="url(#mask0_320_1554)">
<path d="M3.77377 6.79425C3.94911 6.61895 4.1869 6.52048 4.43484 6.52048C4.68278 6.52048 4.92057 6.61895 5.09591 6.79425L10.0451 11.7434L14.9943 6.79425C15.0805 6.70494 15.1837 6.63371 15.2978 6.5847C15.4118 6.5357 15.5345 6.5099 15.6587 6.50882C15.7828 6.50775 15.906 6.5314 16.0209 6.57842C16.1358 6.62543 16.2402 6.69486 16.328 6.78266C16.4158 6.87045 16.4852 6.97485 16.5322 7.08976C16.5792 7.20468 16.6029 7.3278 16.6018 7.45195C16.6007 7.57611 16.5749 7.6988 16.5259 7.81288C16.4769 7.92696 16.4057 8.03014 16.3164 8.11639L10.7062 13.7266C10.5308 13.9019 10.293 14.0004 10.0451 14.0004C9.79715 14.0004 9.55936 13.9019 9.38401 13.7266L3.77377 8.11639C3.59847 7.94105 3.5 7.70326 3.5 7.45532C3.5 7.20738 3.59847 6.96959 3.77377 6.79425Z" fill="#333333" stroke="white" stroke-width="0.2"/>
</g>
</svg>
