<svg width="20" height="20" viewBox="0 0 20 20" fill="none" xmlns="http://www.w3.org/2000/svg">
<mask id="mask0_320_1512" style="mask-type:alpha" maskUnits="userSpaceOnUse" x="0" y="0" width="20" height="20">
<rect width="20" height="20" fill="#D9D9D9"/>
</mask>
<g mask="url(#mask0_320_1512)">
<path d="M6.42498 18.9434L6.42497 18.9435C6.26317 19.1053 6.04371 19.1963 5.81485 19.1963H1.96297C1.7341 19.1963 1.5146 19.1054 1.35276 18.9435C1.19092 18.7817 1.1 18.5622 1.1 18.3333V14.4815C1.1 14.4815 1.1 14.4814 1.1 14.4814C1.10005 14.2526 1.19101 14.0331 1.35285 13.8713L1.35286 13.8713L10.9826 4.24158L13.8715 1.35267C13.8715 1.35266 13.8715 1.35266 13.8715 1.35266C14.0334 1.19088 14.2528 1.1 14.4816 1.1C14.7105 1.1 14.9299 1.19088 15.0918 1.35266C15.0918 1.35266 15.0918 1.35266 15.0918 1.35267L18.9437 5.20455C19.1054 5.36638 19.1963 5.58584 19.1963 5.81467C19.1963 6.0435 19.1054 6.26296 18.9436 6.42479L6.42498 18.9434ZM11.6634 6.14263L11.5927 6.07192L11.522 6.14263L2.85524 14.8094L2.82595 14.8387V14.8801V17.3704V17.4704H2.92595H5.4162H5.45762L5.48691 17.4411L14.1537 8.7743L14.2244 8.70359L14.1537 8.63288L11.6634 6.14263ZM15.3739 7.41265L15.4446 7.48337L15.5153 7.41265L17.0426 5.88538L17.1133 5.81467L17.0426 5.74396L14.5524 3.2537L14.4816 3.18299L14.4109 3.2537L12.8837 4.78098L12.8129 4.85169L12.8837 4.9224L15.3739 7.41265Z" fill="#D9D9D9" stroke="white" stroke-width="0.2"/>
</g>
</svg>
