<svg width="18" height="20" viewBox="0 0 18 20" fill="none" xmlns="http://www.w3.org/2000/svg">
<path d="M9.20002 0C4.80002 0 1.20001 3.6 1.20001 8.00001C1.20001 13.4 8.20002 19.5 8.50002 19.8C8.70002 19.9 9.00002 20 9.20002 20C9.40002 20 9.70002 19.9 9.90002 19.8C10.2 19.5 17.2 13.4 17.2 8.00001C17.2 3.6 13.6 0 9.20002 0ZM9.20002 17.7C7.10002 15.7 3.20001 11.4 3.20001 8.00001C3.20001 4.70001 5.90002 2 9.20002 2C12.5 2 15.2 4.70001 15.2 8.00001C15.2 11.3 11.3 15.7 9.20002 17.7ZM9.20002 4.00001C7.00002 4.00001 5.20002 5.80001 5.20002 8.00001C5.20002 10.2 7.00002 12 9.20002 12C11.4 12 13.2 10.2 13.2 8.00001C13.2 5.80001 11.4 4.00001 9.20002 4.00001ZM9.20002 10C8.10002 10 7.20002 9.10001 7.20002 8.00001C7.20002 6.90001 8.10002 6.00001 9.20002 6.00001C10.3 6.00001 11.2 6.90001 11.2 8.00001C11.2 9.10001 10.3 10 9.20002 10Z" fill="white" stroke="#2AB5BE" stroke-width="0.5"/>
</svg>
