<svg width="20" height="20" viewBox="0 0 20 20" fill="none" xmlns="http://www.w3.org/2000/svg">
<mask id="mask0_320_1562" style="mask-type:alpha" maskUnits="userSpaceOnUse" x="0" y="0" width="20" height="20">
<rect width="20" height="20" fill="#333333"/>
</mask>
<g mask="url(#mask0_320_1562)">
<path d="M10.2002 0C5.8002 0 2.2002 3.6 2.2002 8.00001C2.2002 13.4 9.2002 19.5 9.50021 19.8C9.70021 19.9 10.0002 20 10.2002 20C10.4002 20 10.7002 19.9 10.9002 19.8C11.2002 19.5 18.2002 13.4 18.2002 8.00001C18.2002 3.6 14.6002 0 10.2002 0ZM10.2002 17.7C8.1002 15.7 4.2002 11.4 4.2002 8.00001C4.2002 4.70001 6.9002 2 10.2002 2C13.5002 2 16.2002 4.70001 16.2002 8.00001C16.2002 11.3 12.3002 15.7 10.2002 17.7ZM10.2002 4.00001C8.0002 4.00001 6.2002 5.80001 6.2002 8.00001C6.2002 10.2 8.0002 12 10.2002 12C12.4002 12 14.2002 10.2 14.2002 8.00001C14.2002 5.80001 12.4002 4.00001 10.2002 4.00001ZM10.2002 10C9.1002 10 8.2002 9.10001 8.2002 8.00001C8.2002 6.90001 9.1002 6.00001 10.2002 6.00001C11.3002 6.00001 12.2002 6.90001 12.2002 8.00001C12.2002 9.10001 11.3002 10 10.2002 10Z" fill="#D9D9D9" stroke="white" stroke-width="0.5"/>
</g>
</svg>
