<svg width="20" height="21" viewBox="0 0 20 21" fill="none" xmlns="http://www.w3.org/2000/svg">
<mask id="mask0_279_989" style="mask-type:alpha" maskUnits="userSpaceOnUse" x="0" y="0" width="20" height="21">
<rect y="0.5" width="20" height="20" fill="#BF8383"/>
</mask>
<g mask="url(#mask0_279_989)">
<path d="M11.4251 8.85619C11.7671 8.85619 12.0838 9.03352 12.2485 9.37553C12.3371 9.56554 12.3625 9.75554 12.3625 9.95821C12.3625 11.6176 12.3625 13.277 12.3625 14.9363C12.3625 16.6337 12.3625 18.3311 12.3625 20.0158C12.3625 20.2058 12.3118 20.2438 12.1218 20.2438C10.7031 20.2438 9.29705 20.2438 7.87835 20.2438C7.67568 20.2438 7.61234 20.1931 7.61234 19.9905C7.61234 16.6717 7.61234 13.3403 7.61234 10.0215C7.61234 10.0215 7.473 8.86885 8.68903 8.86885H11.4124L11.4251 8.85619Z" fill="#F87700"/>
<path d="M15.4529 12.6436C16.3776 12.6436 17.0743 12.6436 17.999 12.6436C18.6197 12.6436 18.9997 13.0489 18.9997 13.6316C18.9997 15.7723 18.9997 17.913 18.9997 20.0537C18.9997 20.1931 18.9617 20.2311 18.8224 20.2311C17.353 20.2311 15.8963 20.2311 14.4269 20.2311C14.2622 20.2311 14.2496 20.1677 14.2496 20.0411C14.2496 18.9517 14.2496 17.8497 14.2496 16.7603C14.2496 15.7216 14.2369 14.8349 14.2369 13.8343C14.2369 13.8343 14.1356 12.6436 15.4403 12.6436H15.4529Z" fill="#F6C23B"/>
<path d="M3.35606 20.2311C2.64671 20.2311 1.93736 20.2311 1.22801 20.2311C1.06333 20.2311 1 20.2058 1 20.0158C1 19.1418 1 18.2678 1 17.3937C1 16.9251 1.38001 16.431 1.93736 16.431C2.88738 16.431 3.8374 16.4184 4.77476 16.431C5.37011 16.431 5.75012 16.8617 5.75012 17.4571C5.75012 18.3058 5.75012 19.1544 5.75012 20.0031C5.75012 20.1931 5.68678 20.2311 5.50944 20.2311C4.78743 20.2311 4.07808 20.2311 3.35606 20.2311Z" fill="#F6C23B"/>
<path d="M10.0068 6.46213C9.88014 6.46213 9.8168 6.39879 9.76614 6.29746C9.6268 6.01878 9.4748 5.75278 9.34813 5.46144C9.12012 4.89142 8.71478 4.51141 8.15743 4.27074C7.87876 4.14407 7.61275 4.00473 7.34674 3.8654C7.23274 3.81473 7.15674 3.73873 7.15674 3.61206C7.15674 3.48539 7.25807 3.43472 7.35941 3.38405C7.76475 3.19405 8.1701 3.00404 8.56277 2.77604C8.84145 2.61137 9.04412 2.38336 9.19612 2.10469C9.38613 1.75001 9.5508 1.39534 9.72814 1.02799C9.79147 0.926658 9.8548 0.799988 10.0068 0.799988C10.1461 0.799988 10.2095 0.926658 10.2728 1.04066C10.5135 1.484 10.6782 1.95268 10.9822 2.37069C11.1215 2.57336 11.3242 2.72537 11.5395 2.83937C11.9069 3.02938 12.2615 3.20671 12.6289 3.38405C12.7302 3.43472 12.8569 3.49805 12.8569 3.63739C12.8569 3.78939 12.7555 3.85273 12.6289 3.9034C12.2995 4.06807 11.9702 4.23274 11.6408 4.39741C11.2482 4.58741 10.9695 4.86609 10.7795 5.25876C10.6148 5.60077 10.4375 5.94278 10.2601 6.29746C10.2095 6.39879 10.1461 6.50013 10.0195 6.48746L10.0068 6.46213Z" fill="#F87700"/>
</g>
</svg>
