<svg width="16" height="16" viewBox="0 0 16 16" fill="none" xmlns="http://www.w3.org/2000/svg">
<path d="M6.40393 1.60016C5.13011 1.60016 3.90846 2.10621 3.00774 3.00699C2.10701 3.90777 1.60098 5.12949 1.60098 6.40339C1.60098 7.67728 2.10701 8.899 3.00774 9.79978C3.90846 10.7006 5.13011 11.2066 6.40393 11.2066C7.67776 11.2066 8.89941 10.7006 9.80013 9.79978C10.7009 8.899 11.2069 7.67728 11.2069 6.40339C11.2069 5.12949 10.7009 3.90777 9.80013 3.00699C8.89941 2.10621 7.67776 1.60016 6.40393 1.60016ZM3.95573e-08 6.40339C0.000145951 5.38419 0.243524 4.37974 0.709908 3.47353C1.17629 2.56732 1.85221 1.78551 2.68149 1.19307C3.51077 0.600641 4.46946 0.214696 5.47789 0.0673142C6.48632 -0.0800673 7.51535 0.015371 8.47948 0.345697C9.44361 0.676024 10.315 1.2317 11.0212 1.96654C11.7274 2.70138 12.248 3.59417 12.5398 4.5707C12.8316 5.54723 12.8861 6.5793 12.6988 7.58114C12.5115 8.58298 12.0879 9.52566 11.463 10.3308L15.7753 14.6433C15.9211 14.7943 16.0018 14.9965 16 15.2064C15.9981 15.4163 15.914 15.6171 15.7655 15.7655C15.6171 15.914 15.4163 15.9981 15.2065 16C14.9966 16.0018 14.7944 15.9211 14.6434 15.7753L10.3311 11.4628C9.38453 12.1978 8.25069 12.6523 7.05855 12.7749C5.86641 12.8974 4.66382 12.6829 3.58752 12.1558C2.51123 11.6287 1.60442 10.8102 0.970216 9.79326C0.336014 8.77634 -0.000133138 7.60187 3.95573e-08 6.40339Z" fill="white"/>
</svg>
