<svg width="20" height="20" viewBox="0 0 20 20" fill="none" xmlns="http://www.w3.org/2000/svg">
<mask id="mask0_320_1520" style="mask-type:alpha" maskUnits="userSpaceOnUse" x="0" y="0" width="20" height="20">
<rect width="20" height="20" fill="#D9D9D9"/>
</mask>
<g mask="url(#mask0_320_1520)">
<path d="M10 2.8C8.09044 2.8 6.25909 3.55857 4.90883 4.90883C3.55857 6.25909 2.8 8.09044 2.8 10C2.8 11.9096 3.55857 13.7409 4.90883 15.0912C6.25909 16.4414 8.09044 17.2 10 17.2C11.9096 17.2 13.7409 16.4414 15.0912 15.0912C16.4414 13.7409 17.2 11.9096 17.2 10C17.2 8.09044 16.4414 6.25909 15.0912 4.90883C13.7409 3.55857 11.9096 2.8 10 2.8ZM1 10C1 5.0293 5.0293 1 10 1C14.9707 1 19 5.0293 19 10C19 14.9707 14.9707 19 10 19C5.0293 19 1 14.9707 1 10ZM10 4.6C10.2387 4.6 10.4676 4.69482 10.6364 4.8636C10.8052 5.03239 10.9 5.2613 10.9 5.5V9.6274L13.3363 12.0637C13.5002 12.2334 13.591 12.4608 13.5889 12.6968C13.5869 12.9327 13.4922 13.1585 13.3253 13.3253C13.1585 13.4922 12.9327 13.5869 12.6968 13.5889C12.4608 13.591 12.2334 13.5002 12.0637 13.3363L9.3637 10.6363C9.19491 10.4676 9.10005 10.2387 9.1 10V5.5C9.1 5.2613 9.19482 5.03239 9.3636 4.8636C9.53239 4.69482 9.7613 4.6 10 4.6Z" fill="#D9D9D9" stroke="white" stroke-width="0.3"/>
</g>
</svg>
