<svg width="20" height="20" viewBox="0 0 20 20" fill="none" xmlns="http://www.w3.org/2000/svg">
<mask id="mask0_320_1569" style="mask-type:alpha" maskUnits="userSpaceOnUse" x="0" y="0" width="20" height="20">
<rect width="20" height="20" fill="#D9D9D9"/>
</mask>
<g mask="url(#mask0_320_1569)">
<path d="M8.99179 3.62971L7.78024 4.84126C7.62235 4.99345 7.41106 5.07765 7.19174 5.07575C6.97215 5.07384 6.7621 4.98576 6.60682 4.83048C6.45154 4.6752 6.36346 4.46515 6.36155 4.24556C6.35965 4.02625 6.44384 3.81495 6.59603 3.65706L9.40789 0.845209C9.56494 0.688202 9.77793 0.6 10 0.6C10.2221 0.6 10.435 0.688198 10.5921 0.845198C10.5921 0.845202 10.5921 0.845205 10.5921 0.845209L13.404 3.65707C13.5562 3.81496 13.6404 4.02625 13.6384 4.24556C13.6365 4.46515 13.5485 4.6752 13.3932 4.83048C13.2379 4.98576 13.0278 5.07384 12.8083 5.07575C12.589 5.07765 12.3777 4.99346 12.2198 4.84129L11.0082 3.62971L10.8375 3.459V3.70043V12.6873C10.8375 12.9094 10.7493 13.1224 10.5922 13.2795C10.4351 13.4366 10.2221 13.5248 10 13.5248C9.77788 13.5248 9.56486 13.4366 9.4078 13.2795C9.25074 13.1224 9.1625 12.9094 9.1625 12.6873V3.70043V3.459L8.99179 3.62971ZM4.375 8.8373H4.275V8.9373V17.3748V17.4748H4.375H15.625H15.725V17.3748V8.9373V8.8373H15.625H13.75C13.5279 8.8373 13.3149 8.74906 13.1578 8.592C13.0007 8.43494 12.9125 8.22192 12.9125 7.9998C12.9125 7.77768 13.0007 7.56466 13.1578 7.4076C13.3149 7.25054 13.5279 7.1623 13.75 7.1623H15.625C16.0958 7.1623 16.5472 7.34931 16.8801 7.68219C17.213 8.01506 17.4 8.46654 17.4 8.9373V17.3748C17.4 17.8456 17.213 18.297 16.8801 18.6299C16.5472 18.9628 16.0958 19.1498 15.625 19.1498H4.375C3.90424 19.1498 3.45276 18.9628 3.11989 18.6299C2.78701 18.297 2.6 17.8456 2.6 17.3748V8.9373C2.6 8.46654 2.78701 8.01506 3.11989 7.68219C3.45276 7.34931 3.90424 7.1623 4.375 7.1623H6.25C6.47212 7.1623 6.68514 7.25054 6.8422 7.4076C6.99926 7.56466 7.0875 7.77768 7.0875 7.9998C7.0875 8.22192 6.99926 8.43494 6.8422 8.592C6.68514 8.74906 6.47212 8.8373 6.25 8.8373H4.375Z" fill="#333333" stroke="white" stroke-width="0.2"/>
</g>
</svg>
