<svg width="21" height="21" viewBox="0 0 21 21" fill="none" xmlns="http://www.w3.org/2000/svg">
<mask id="mask0_122_530" style="mask-type:alpha" maskUnits="userSpaceOnUse" x="0" y="0" width="21" height="21">
<rect x="0.822388" y="0.25" width="20" height="20" fill="#D9D9D9"/>
</mask>
<g mask="url(#mask0_122_530)">
<path d="M11.9828 8.89807C12.3161 8.89807 12.6247 9.07091 12.7852 9.40423C12.8716 9.58941 12.8963 9.77459 12.8963 9.97212C12.8963 11.5894 12.8963 13.2066 12.8963 14.8239C12.8963 16.4781 12.8963 18.1324 12.8963 19.7744C12.8963 19.9595 12.8469 19.9966 12.6618 19.9966C11.2791 19.9966 9.90874 19.9966 8.52606 19.9966C8.32853 19.9966 8.26681 19.9472 8.26681 19.7497C8.26681 16.5152 8.26681 13.2683 8.26681 10.0338C8.26681 10.0338 8.13101 8.91042 9.31616 8.91042H11.9704L11.9828 8.89807Z" fill="#F6C23B"/>
<path d="M4.11863 19.9966C3.42729 19.9966 2.73595 19.9966 2.0446 19.9966C1.88411 19.9966 1.82239 19.9719 1.82239 19.7867C1.82239 18.9349 1.82239 18.083 1.82239 17.2312C1.82239 16.7744 2.19275 16.293 2.73595 16.293C3.66185 16.293 4.58776 16.2806 5.50132 16.293C6.08155 16.293 6.45191 16.7127 6.45191 17.2929C6.45191 18.1201 6.45191 18.9472 6.45191 19.7744C6.45191 19.9595 6.39018 19.9966 6.21735 19.9966C5.51366 19.9966 4.82232 19.9966 4.11863 19.9966Z" fill="#F6C23B"/>
<path d="M17.057 10.2807C16.9336 10.2807 16.8718 10.219 16.8224 10.1202C16.6866 9.84865 16.5385 9.5894 16.4151 9.30545C16.1928 8.74991 15.7978 8.37955 15.2546 8.14498C14.983 8.02153 14.7237 7.88573 14.4645 7.74993C14.3534 7.70055 14.2793 7.62648 14.2793 7.50302C14.2793 7.37957 14.3781 7.33019 14.4768 7.28081C14.8719 7.09563 15.2669 6.91044 15.6496 6.68823C15.9212 6.52774 16.1188 6.30552 16.2669 6.03392C16.4521 5.68825 16.6126 5.34258 16.7854 4.98456C16.8471 4.87345 16.8965 4.75 17.0447 4.75C17.1805 4.75 17.2422 4.87345 17.3039 4.98456C17.5385 5.41665 17.699 5.87343 17.9953 6.28083C18.1311 6.47836 18.3286 6.6265 18.5385 6.73761C18.8965 6.92279 19.2421 7.09563 19.6002 7.26846C19.6989 7.31784 19.8224 7.37957 19.8224 7.51537C19.8224 7.66351 19.7236 7.72524 19.6002 7.77462C19.2792 7.93511 18.9582 8.0956 18.6372 8.25609C18.2545 8.44127 17.9829 8.71287 17.7977 9.09558C17.6372 9.42891 17.4644 9.76223 17.2916 10.1079C17.2422 10.2067 17.1805 10.3054 17.057 10.2931V10.2807Z" fill="#F87700"/>
<path d="M15.9087 12.6017C16.81 12.6017 17.489 12.6017 18.3902 12.6017C18.9951 12.6017 19.3655 12.9967 19.3655 13.5646C19.3655 15.651 19.3655 17.7374 19.3655 19.8237C19.3655 19.9595 19.3284 19.9966 19.1926 19.9966C17.7606 19.9966 16.3408 19.9966 14.9088 19.9966C14.7483 19.9966 14.7359 19.9349 14.7359 19.8114C14.7359 18.7497 14.7359 17.6756 14.7359 16.6139C14.7359 15.6016 14.7236 14.7374 14.7236 13.7622C14.7236 13.7622 14.6248 12.6017 15.8964 12.6017H15.9087Z" fill="#F87700"/>
</g>
</svg>
