<svg width="139" height="46" viewBox="0 0 139 46" fill="none" xmlns="http://www.w3.org/2000/svg">
<path d="M15.5504 46.0001C18.3899 46.0001 20.6919 45.7651 20.6919 45.4752C20.6919 45.1853 18.3899 44.9503 15.5504 44.9503C12.7108 44.9503 10.4089 45.1853 10.4089 45.4752C10.4089 45.7651 12.7108 46.0001 15.5504 46.0001Z" fill="#333333"/>
<path d="M14.26 1.97914C14.5614 1.97914 14.8056 1.73487 14.8056 1.43354C14.8056 1.13221 14.5614 0.887939 14.26 0.887939C13.9587 0.887939 13.7144 1.13221 13.7144 1.43354C13.7144 1.73487 13.9587 1.97914 14.26 1.97914Z" fill="#DD73B5"/>
<path d="M29.9648 15.6608C30.5211 15.6608 30.972 15.2098 30.972 14.6535C30.972 14.0972 30.5211 13.6462 29.9648 13.6462C29.4085 13.6462 28.9575 14.0972 28.9575 14.6535C28.9575 15.2098 29.4085 15.6608 29.9648 15.6608Z" fill="#CD2235"/>
<path d="M13.094 6.76686C13.3953 6.76686 13.6396 6.52259 13.6396 6.22126C13.6396 5.91993 13.3953 5.67566 13.094 5.67566C12.7926 5.67566 12.5484 5.91993 12.5484 6.22126C12.5484 6.52259 12.7926 6.76686 13.094 6.76686Z" fill="#95CFEF"/>
<path d="M9.57983 2.34977C9.3543 2.39377 9.13131 2.44079 8.90629 2.47922C8.75409 2.50552 8.60037 2.53282 8.44665 2.53687C8.2095 2.54344 8.01078 2.44635 7.87021 2.2537C7.71194 2.03677 7.76301 1.78142 7.91167 1.60039C7.98398 1.51241 8.0755 1.45477 8.1913 1.43353C8.16905 1.33796 8.17663 1.24593 8.21203 1.15643C8.3258 0.867195 8.67066 0.683136 9.0054 0.883375C9.17732 0.986529 9.28958 1.13469 9.34571 1.32683C9.44229 1.65703 9.50954 1.99379 9.5778 2.33005C9.57831 2.33359 9.5778 2.33764 9.57881 2.34876L9.57983 2.34977Z" fill="#FF7044"/>
<path d="M9.81573 2.4949C10.0413 2.45091 10.2643 2.40388 10.4893 2.36545C10.6415 2.33916 10.7952 2.31185 10.9489 2.30781C11.1861 2.30123 11.3848 2.39832 11.5254 2.59097C11.6836 2.8079 11.6326 3.06326 11.4839 3.24428C11.4116 3.33226 11.3201 3.38991 11.2043 3.41115C11.2265 3.50672 11.2189 3.59874 11.1835 3.68825C11.0698 3.97748 10.7249 4.16154 10.3902 3.9613C10.2182 3.85815 10.106 3.70999 10.0499 3.51784C9.95327 3.18765 9.88602 2.85088 9.81776 2.51462C9.81725 2.51108 9.81776 2.50704 9.81675 2.49591L9.81573 2.4949Z" fill="#FF7044"/>
<path d="M9.76864 2.30216C9.72465 2.07664 9.67763 1.85365 9.6392 1.62863C9.6129 1.47643 9.5856 1.32271 9.58155 1.16899C9.57498 0.931837 9.67206 0.733115 9.86472 0.592543C10.0816 0.434273 10.337 0.485344 10.518 0.634006C10.606 0.706315 10.6637 0.797838 10.6849 0.913633C10.7805 0.891385 10.8725 0.898969 10.962 0.934365C11.2512 1.04814 11.4353 1.39299 11.235 1.72774C11.1319 1.89966 10.9837 2.01192 10.7916 2.06804C10.4614 2.16462 10.1246 2.23188 9.78836 2.30014C9.78482 2.30064 9.78078 2.30014 9.76965 2.30115L9.76864 2.30216Z" fill="#FF7044"/>
<path d="M9.62472 2.53711C9.66871 2.76263 9.71574 2.98563 9.75417 3.21064C9.78046 3.36284 9.80777 3.51656 9.81181 3.67028C9.81839 3.90743 9.7213 4.10616 9.52865 4.24673C9.31172 4.405 9.05637 4.35393 8.87534 4.20526C8.78736 4.13296 8.72971 4.04143 8.70848 3.92564C8.61291 3.94789 8.52088 3.9403 8.43138 3.90491C8.14214 3.79113 7.95808 3.44628 8.15832 3.11153C8.26148 2.93961 8.40963 2.82736 8.60178 2.77123C8.93198 2.67465 9.26874 2.6074 9.605 2.53913C9.60854 2.53863 9.61259 2.53913 9.62371 2.53812L9.62472 2.53711Z" fill="#FF7044"/>
<g style="mix-blend-mode:multiply">
<path d="M22.9118 1.04527C22.8213 0.948692 22.7303 0.854135 22.6428 0.756544C22.5837 0.690303 22.5235 0.623556 22.4745 0.550236C22.3986 0.436464 22.3855 0.31005 22.4365 0.182625C22.4937 0.0390194 22.6342 -0.0140743 22.7677 0.00311792C22.833 0.0117141 22.8886 0.0385138 22.9346 0.0885736C22.9746 0.0486269 23.0216 0.0243554 23.0762 0.0142423C23.2522 -0.0186252 23.4473 0.0931245 23.4519 0.317635C23.4539 0.432925 23.4165 0.533044 23.3396 0.619006C23.2082 0.767162 23.0646 0.902678 22.9215 1.0387C22.9199 1.04022 22.9179 1.04123 22.9129 1.04477L22.9118 1.04527Z" fill="#1FBAAC"/>
</g>
<g style="mix-blend-mode:multiply">
<path d="M22.9131 1.20447C23.0036 1.30105 23.0946 1.39561 23.1821 1.4932C23.2413 1.55944 23.3014 1.62618 23.3505 1.6995C23.4263 1.81328 23.4395 1.93969 23.3884 2.06711C23.3313 2.21072 23.1907 2.26381 23.0572 2.24662C22.992 2.23803 22.9363 2.21123 22.8903 2.16117C22.8504 2.20111 22.8034 2.22538 22.7487 2.2355C22.5728 2.26837 22.3776 2.15662 22.373 1.93211C22.371 1.81682 22.4084 1.7167 22.4853 1.63073C22.6168 1.48258 22.7604 1.34706 22.9035 1.21104C22.905 1.20952 22.907 1.20851 22.9121 1.20497L22.9131 1.20447Z" fill="#1FBAAC"/>
</g>
<g style="mix-blend-mode:multiply">
<path d="M22.9927 1.12318C23.0893 1.03267 23.1838 0.941653 23.2814 0.854174C23.3477 0.795013 23.4144 0.73484 23.4877 0.685791C23.6015 0.609943 23.7279 0.596796 23.8554 0.647867C23.999 0.705006 24.0521 0.845578 24.0349 0.979071C24.0263 1.0443 23.9995 1.09992 23.9494 1.14594C23.9894 1.18588 24.0136 1.23291 24.0237 1.28752C24.0566 1.46349 23.9449 1.65867 23.7203 1.66322C23.6051 1.66524 23.5049 1.62783 23.419 1.55097C23.2708 1.4195 23.1353 1.27589 22.9993 1.13279C22.9978 1.13127 22.9968 1.12925 22.9932 1.12419L22.9927 1.12318Z" fill="#1FBAAC"/>
</g>
<g style="mix-blend-mode:multiply">
<path d="M22.834 1.12459C22.7374 1.2151 22.6428 1.30612 22.5452 1.3936C22.479 1.45276 22.4123 1.51293 22.3389 1.56198C22.2252 1.63783 22.0987 1.65098 21.9713 1.59991C21.8277 1.54277 21.7746 1.40219 21.7918 1.2687C21.8004 1.20347 21.8272 1.14785 21.8773 1.10184C21.8373 1.06189 21.8131 1.01486 21.8029 0.960252C21.7701 0.784284 21.8818 0.589101 22.1063 0.58455C22.2216 0.582528 22.3217 0.619946 22.4077 0.696806C22.5559 0.828276 22.6914 0.971882 22.8274 1.11498C22.8289 1.1165 22.8299 1.11852 22.8335 1.12358L22.834 1.12459Z" fill="#1FBAAC"/>
</g>
<path d="M18.2223 4.7751C17.9082 4.62745 17.5942 4.48637 17.2858 4.33316C17.0769 4.2295 16.8656 4.12584 16.6744 3.99437C16.3796 3.7916 16.2239 3.49529 16.2239 3.13577C16.2239 2.73074 16.5136 2.46426 16.8565 2.37627C17.0233 2.33329 17.1857 2.34492 17.346 2.42229C17.4046 2.28576 17.4951 2.18059 17.618 2.10272C18.0144 1.85141 18.599 1.93433 18.8285 2.4769C18.9464 2.75602 18.9514 3.03615 18.8488 3.32084C18.6723 3.8093 18.4543 4.27956 18.2379 4.75083C18.2354 4.75589 18.2319 4.76044 18.2223 4.7746V4.7751Z" fill="#B4D435"/>
<path d="M18.3814 5.16235C18.6954 5.31 19.0095 5.45108 19.3179 5.6043C19.5267 5.70796 19.7381 5.81161 19.9292 5.94308C20.224 6.14585 20.3798 6.44217 20.3798 6.80169C20.3798 7.20672 20.09 7.4732 19.7472 7.56118C19.5803 7.60416 19.418 7.59253 19.2577 7.51516C19.1991 7.65169 19.1086 7.75687 18.9857 7.83474C18.5893 8.08605 18.0047 8.00312 17.7752 7.46055C17.6573 7.18143 17.6523 6.9013 17.7549 6.61662C17.9314 6.12815 18.1493 5.6579 18.3658 5.18663C18.3683 5.18157 18.3718 5.17702 18.3814 5.16286V5.16235Z" fill="#B4D435"/>
<path d="M18.4955 4.88568C18.6431 4.57167 18.7842 4.25765 18.9374 3.9492C19.0411 3.74037 19.1447 3.52901 19.2762 3.33787C19.479 3.04307 19.7753 2.88733 20.1348 2.88733C20.5398 2.88733 20.8063 3.17707 20.8943 3.5199C20.9373 3.68677 20.9256 3.84908 20.8483 4.00938C20.9848 4.06803 21.09 4.15855 21.1678 4.28142C21.4191 4.67785 21.3362 5.26239 20.7937 5.49196C20.5145 5.60977 20.2344 5.61483 19.9497 5.51218C19.4613 5.33571 18.991 5.11777 18.5197 4.90135C18.5147 4.89882 18.5101 4.89528 18.496 4.88568H18.4955Z" fill="#B4D435"/>
<path d="M18.1112 5.04358C17.9636 5.35759 17.8225 5.6716 17.6693 5.98005C17.5656 6.18889 17.462 6.40025 17.3305 6.59139C17.1277 6.88618 16.8314 7.04193 16.4719 7.04193C16.0669 7.04193 15.8004 6.75219 15.7124 6.40935C15.6694 6.24249 15.6811 6.08017 15.7584 5.91988C15.6219 5.86122 15.5167 5.77071 15.4389 5.64784C15.1875 5.2514 15.2705 4.66687 15.813 4.4373C16.0922 4.31948 16.3723 4.31442 16.657 4.41707C17.1454 4.59355 17.6157 4.81148 18.087 5.0279C18.092 5.03043 18.0966 5.03397 18.1107 5.04358H18.1112Z" fill="#B4D435"/>
<path d="M23.2643 8.11694C23.7636 8.11694 24.1684 7.71215 24.1684 7.21283C24.1684 6.7135 23.7636 6.30872 23.2643 6.30872C22.7649 6.30872 22.3602 6.7135 22.3602 7.21283C22.3602 7.71215 22.7649 8.11694 23.2643 8.11694Z" fill="url(#paint0_linear_479_1567)"/>
<path d="M6.87029 9.15287C7.78991 9.15287 8.53541 8.40737 8.53541 7.48775C8.53541 6.56813 7.78991 5.82263 6.87029 5.82263C5.95067 5.82263 5.20517 6.56813 5.20517 7.48775C5.20517 8.40737 5.95067 9.15287 6.87029 9.15287Z" fill="#B4D435"/>
<mask id="mask0_479_1567" style="mask-type:luminance" maskUnits="userSpaceOnUse" x="0" y="3" width="32" height="40">
<path d="M15.5499 3.22498C6.96185 3.22498 0 10.3254 0 19.0838C0 27.8423 6.14927 35.4246 15.5499 42.5088C24.9505 35.4246 31.0998 27.8423 31.0998 19.0838C31.0998 10.3254 24.1379 3.22498 15.5499 3.22498ZM15.5499 27.7047C10.6825 27.7047 6.73633 23.7586 6.73633 18.8912C6.73633 14.0237 10.6825 10.0776 15.5499 10.0776C20.4173 10.0776 24.3635 14.0237 24.3635 18.8912C24.3635 23.7586 20.4173 27.7047 15.5499 27.7047Z" fill="white"/>
</mask>
<g mask="url(#mask0_479_1567)">
<g style="mix-blend-mode:multiply">
<path d="M26.9716 27.4426C29.2415 27.4426 31.0816 25.6025 31.0816 23.3326C31.0816 21.0627 29.2415 19.2227 26.9716 19.2227C24.7018 19.2227 22.8617 21.0627 22.8617 23.3326C22.8617 25.6025 24.7018 27.4426 26.9716 27.4426Z" fill="#FFD67B"/>
</g>
<g style="mix-blend-mode:multiply">
<path d="M5.45004 31.5024C8.00728 31.5024 10.0803 29.4293 10.0803 26.8721C10.0803 24.3149 8.00728 22.2418 5.45004 22.2418C2.89281 22.2418 0.819763 24.3149 0.819763 26.8721C0.819763 29.4293 2.89281 31.5024 5.45004 31.5024Z" fill="#FD8D2B"/>
</g>
<g style="mix-blend-mode:multiply">
<path d="M7.34939 38.7209C9.78514 38.7209 11.7597 36.7463 11.7597 34.3106C11.7597 31.8748 9.78514 29.9003 7.34939 29.9003C4.91364 29.9003 2.93907 31.8748 2.93907 34.3106C2.93907 36.7463 4.91364 38.7209 7.34939 38.7209Z" fill="#4ED8C7"/>
</g>
<g style="mix-blend-mode:multiply">
<path d="M16.6329 36.7643C19.9729 36.7643 22.6805 34.0567 22.6805 30.7167C22.6805 27.3767 19.9729 24.6691 16.6329 24.6691C13.2929 24.6691 10.5852 27.3767 10.5852 30.7167C10.5852 34.0567 13.2929 36.7643 16.6329 36.7643Z" fill="#FCC024"/>
</g>
<g style="mix-blend-mode:multiply">
<path d="M15.7325 45.2082C18.4431 45.2082 20.6404 43.0109 20.6404 40.3003C20.6404 37.5898 18.4431 35.3925 15.7325 35.3925C13.022 35.3925 10.8247 37.5898 10.8247 40.3003C10.8247 43.0109 13.022 45.2082 15.7325 45.2082Z" fill="#FD8D2B"/>
</g>
<g style="mix-blend-mode:multiply">
<path d="M23.0154 35.8959C25.2026 35.8959 26.9757 34.1228 26.9757 31.9356C26.9757 29.7484 25.2026 27.9753 23.0154 27.9753C20.8282 27.9753 19.0551 29.7484 19.0551 31.9356C19.0551 34.1228 20.8282 35.8959 23.0154 35.8959Z" fill="#FFD67B"/>
</g>
<g style="mix-blend-mode:multiply">
<path d="M23.3746 30.2111C25.1843 30.2111 26.6513 28.7441 26.6513 26.9345C26.6513 25.1248 25.1843 23.6578 23.3746 23.6578C21.565 23.6578 20.098 25.1248 20.098 26.9345C20.098 28.7441 21.565 30.2111 23.3746 30.2111Z" fill="#FD8D2B"/>
</g>
<g style="mix-blend-mode:multiply">
<path d="M28.3098 32.2044C30.1195 32.2044 31.5865 30.7374 31.5865 28.9278C31.5865 27.1181 30.1195 25.6511 28.3098 25.6511C26.5002 25.6511 25.0332 27.1181 25.0332 28.9278C25.0332 30.7374 26.5002 32.2044 28.3098 32.2044Z" fill="#E27181"/>
</g>
<g style="mix-blend-mode:multiply">
<path d="M3.8593 26.3073C6.35259 26.3073 8.37379 24.2861 8.37379 21.7928C8.37379 19.2995 6.35259 17.2783 3.8593 17.2783C1.36602 17.2783 -0.655182 19.2995 -0.655182 21.7928C-0.655182 24.2861 1.36602 26.3073 3.8593 26.3073Z" fill="#E27181"/>
</g>
<g style="mix-blend-mode:multiply">
<path d="M15.3696 14.5901C16.9734 14.5901 18.2736 13.2899 18.2736 11.6861C18.2736 10.0823 16.9734 8.7821 15.3696 8.7821C13.7658 8.7821 12.4656 10.0823 12.4656 11.6861C12.4656 13.2899 13.7658 14.5901 15.3696 14.5901Z" fill="#E27181"/>
</g>
<g style="mix-blend-mode:multiply">
<path d="M10.9843 31.5671C12.6649 31.5671 14.0273 30.2047 14.0273 28.5241C14.0273 26.8435 12.6649 25.4811 10.9843 25.4811C9.30368 25.4811 7.94127 26.8435 7.94127 28.5241C7.94127 30.2047 9.30368 31.5671 10.9843 31.5671Z" fill="#B4D435"/>
</g>
<g style="mix-blend-mode:multiply">
<path d="M20.2947 39.253C21.9985 39.253 23.3797 37.8718 23.3797 36.168C23.3797 34.4642 21.9985 33.083 20.2947 33.083C18.5909 33.083 17.2097 34.4642 17.2097 36.168C17.2097 37.8718 18.5909 39.253 20.2947 39.253Z" fill="#95CFEF"/>
</g>
<g style="mix-blend-mode:multiply">
<path d="M1.62487 19.9356C3.22338 19.9356 4.51924 18.6397 4.51924 17.0412C4.51924 15.4427 3.22338 14.1469 1.62487 14.1469C0.0263519 14.1469 -1.2695 15.4427 -1.2695 17.0412C-1.2695 18.6397 0.0263519 19.9356 1.62487 19.9356Z" fill="#18638C"/>
</g>
<g style="mix-blend-mode:multiply">
<path d="M8.31017 20.1285C11.1294 20.1285 13.4148 17.8431 13.4148 15.0239C13.4148 12.2047 11.1294 9.91931 8.31017 9.91931C5.49098 9.91931 3.20558 12.2047 3.20558 15.0239C3.20558 17.8431 5.49098 20.1285 8.31017 20.1285Z" fill="#FCC024"/>
</g>
<g style="mix-blend-mode:multiply">
<path d="M3.12742 16.233C5.15963 16.233 6.80707 14.5855 6.80707 12.5533C6.80707 10.5211 5.15963 8.87366 3.12742 8.87366C1.0952 8.87366 -0.552231 10.5211 -0.552231 12.5533C-0.552231 14.5855 1.0952 16.233 3.12742 16.233Z" fill="#FFD67B"/>
</g>
<g style="mix-blend-mode:multiply">
<path d="M10.9411 40.7171C12.7507 40.7171 14.2177 39.2501 14.2177 37.4405C14.2177 35.6308 12.7507 34.1638 10.9411 34.1638C9.13142 34.1638 7.66441 35.6308 7.66441 37.4405C7.66441 39.2501 9.13142 40.7171 10.9411 40.7171Z" fill="#E27181"/>
</g>
<g style="mix-blend-mode:multiply">
<path d="M20.2986 14.0389C21.7064 14.0389 22.8476 12.8977 22.8476 11.4899C22.8476 10.0821 21.7064 8.94092 20.2986 8.94092C18.8908 8.94092 17.7496 10.0821 17.7496 11.4899C17.7496 12.8977 18.8908 14.0389 20.2986 14.0389Z" fill="#1FBAAC"/>
</g>
<g style="mix-blend-mode:multiply">
<path d="M11.3537 12.8218C12.7484 12.8218 13.879 11.6913 13.879 10.2966C13.879 8.90195 12.7484 7.77136 11.3537 7.77136C9.95909 7.77136 8.82851 8.90195 8.82851 10.2966C8.82851 11.6913 9.95909 12.8218 11.3537 12.8218Z" fill="#18638C"/>
</g>
<g style="mix-blend-mode:multiply">
<path d="M23.3319 20.351C25.8408 20.351 27.8747 18.3171 27.8747 15.8082C27.8747 13.2993 25.8408 11.2654 23.3319 11.2654C20.8229 11.2654 18.7891 13.2993 18.7891 15.8082C18.7891 18.3171 20.8229 20.351 23.3319 20.351Z" fill="#76BDE5"/>
</g>
<g style="mix-blend-mode:multiply">
<path d="M28.5349 21.1869C29.8248 21.1869 30.8705 20.1412 30.8705 18.8512C30.8705 17.5613 29.8248 16.5156 28.5349 16.5156C27.245 16.5156 26.1993 17.5613 26.1993 18.8512C26.1993 20.1412 27.245 21.1869 28.5349 21.1869Z" fill="#FD8D2B"/>
</g>
</g>
<path d="M84.2612 41.2103C83.3995 41.3539 82.6092 41.4616 81.8194 41.4616C80.2392 41.4616 79.0903 41.1385 78.3 40.5282C77.5102 39.882 77.1147 38.8044 77.1147 37.3679V12.6257C77.1147 12.0871 77.2224 11.6922 77.4738 11.4763C77.6892 11.2609 78.0482 11.1532 78.6231 11.1532H95.5009C96.0394 11.1532 96.4343 11.2609 96.6861 11.4763C96.9015 11.6917 97.0092 12.0866 97.0092 12.6257V39.9892C97.0092 40.5277 96.9015 40.9226 96.6861 41.1385C96.4348 41.3539 96.0399 41.4616 95.5009 41.4616H92.5564C91.982 41.4616 91.623 41.3539 91.4071 41.1385C91.1558 40.9231 91.0481 40.5282 91.0481 39.9892V13.8822C91.0481 13.4873 90.9763 13.236 90.8686 13.0924C90.7249 13.0206 90.4377 12.9488 90.0787 12.9488H84.0458C83.6867 12.9488 83.4354 13.0206 83.2918 13.0924C83.1482 13.236 83.0764 13.4873 83.0764 13.8822V36.5057C83.0764 37.1519 83.1841 37.5833 83.4354 37.7987C83.4354 37.7987 85.3852 39.4107 88.629 38.3316C89.0735 38.184 89.389 38.2897 89.5159 38.6254L89.6722 39.1189C89.7991 39.4547 89.6949 39.6863 89.3936 39.8233C88.6917 40.1808 87.7391 40.5034 86.6135 40.776C85.4191 41.0283 84.1489 41.2538 82.7639 41.4151" fill="#333333"/>
<path d="M106.382 25.338H110.476C110.763 25.338 110.907 25.4816 110.907 25.7329V26.7386C110.907 27.0258 110.763 27.1335 110.476 27.1335H106.382V40.3483C106.382 40.8868 106.274 41.2817 106.059 41.4977C105.808 41.7131 105.413 41.8208 104.874 41.8208H101.929C101.355 41.8208 100.996 41.7131 100.78 41.4977C100.528 41.2823 100.421 40.8873 100.421 40.3483V12.2668C100.421 11.7283 100.528 11.3333 100.78 11.1174C100.995 10.902 101.354 10.7943 101.929 10.7943H104.874C105.412 10.7943 105.807 10.902 106.059 11.1174C106.274 11.3328 106.382 11.7277 106.382 12.2668V25.338Z" fill="#333333"/>
<path d="M57.7589 14.1697V13.1644C57.7589 12.9131 57.6153 12.7695 57.3281 12.7695H51.8265C52.2204 12.6911 52.5592 12.5015 52.8434 12.1951C53.5119 11.474 53.2368 10.5279 52.5825 10.0966C52.3797 9.96313 52.1577 9.89689 51.91 9.90144C51.9175 9.60462 51.8235 9.34926 51.644 9.12475C51.2749 8.6641 50.6711 8.40571 50.0547 8.68332C49.5076 8.93008 49.1643 9.37 49.0576 9.95757C48.9883 10.3383 48.9762 10.7317 48.9615 11.1201C48.9413 11.6677 48.9408 12.2163 48.9327 12.768H48.4488C48.4548 11.92 48.4619 11.072 48.3967 10.2251C48.3577 9.72143 48.158 9.29819 47.7874 8.95485C47.0663 8.28638 46.1202 8.56146 45.6894 9.21577C45.5559 9.41854 45.4897 9.64052 45.4942 9.88829C45.1974 9.88071 44.942 9.97476 44.7175 10.1543C44.2569 10.5234 43.9985 11.1271 44.2761 11.7435C44.5229 12.2907 44.9628 12.634 45.5503 12.7407C45.608 12.7513 45.6666 12.7599 45.7248 12.768H40.0908C39.8036 12.768 39.66 12.9116 39.66 13.1629V14.1682C39.66 14.4554 39.8036 14.5631 40.0908 14.5631H57.3275C57.6148 14.5631 57.7584 14.4554 57.7584 14.1682L57.7589 14.1697Z" fill="#FF7044"/>
<path d="M59.6621 29.4676C59.8775 29.683 60.2365 29.7908 60.8114 29.7908H63.2532C63.7918 29.7908 64.1867 29.683 64.4385 29.4676C64.6539 29.2522 64.7616 28.8932 64.7616 28.3183V21.1724H67.6701V28.6778C67.6701 29.2522 67.7778 29.6112 68.0292 29.8272C68.2446 30.0426 68.6036 30.1503 69.1785 30.1503H71.6203C72.1588 30.1503 72.5538 30.0426 72.8056 29.8272C73.021 29.6117 73.1287 29.2527 73.1287 28.6778V12.2668C73.1287 11.7283 73.021 11.3333 72.8056 11.1174C72.5543 10.902 72.1593 10.7943 71.6203 10.7943H69.1785C68.6041 10.7943 68.2451 10.902 68.0292 11.1174C67.7778 11.3328 67.6701 11.7278 67.6701 12.2668V19.3773H64.7616V12.2668C64.7616 11.7283 64.6539 11.3333 64.4385 11.1174C64.1872 10.902 63.7923 10.7943 63.2532 10.7943H60.8114C60.237 10.7943 59.878 10.902 59.6621 11.1174C59.4108 11.3328 59.3031 11.7278 59.3031 12.2668V28.3188C59.3031 28.8932 59.4108 29.2522 59.6621 29.4681V29.4676Z" fill="#FF7044"/>
<path d="M45.4774 29.001C46.4467 29.2882 47.5243 29.4318 48.7095 29.4318C49.8948 29.4318 50.9718 29.2882 51.9776 29.001C52.9469 28.7497 53.809 28.3548 54.563 27.7798C55.281 27.2772 55.82 26.5946 56.2509 25.733C56.6458 24.9431 56.8612 23.9733 56.8612 22.8244C56.8612 21.7469 56.6458 20.7775 56.2509 19.9159C55.82 19.0902 55.2815 18.4075 54.563 17.8331C53.809 17.3305 52.9469 16.8997 51.9776 16.612C50.9723 16.3606 49.8589 16.217 48.7095 16.217C47.5602 16.217 46.4472 16.3606 45.4774 16.612C44.4716 16.8992 43.61 17.33 42.892 17.8331C42.138 18.4075 41.5631 19.0902 41.1682 19.9159C40.7374 20.7775 40.5579 21.7474 40.5579 22.8244C40.5579 23.9738 40.7374 24.9431 41.1682 25.733C41.5631 26.5946 42.1375 27.2772 42.892 27.7798C43.61 28.3543 44.4721 28.7492 45.4774 29.001ZM46.6626 19.1615C47.0934 18.4075 47.7761 18.0121 48.7095 18.0121C49.643 18.0121 50.3256 18.407 50.7923 19.1615C51.2231 19.9513 51.4385 21.1725 51.4385 22.8244C51.4385 24.4764 51.2231 25.733 50.7923 26.4874C50.3256 27.2772 49.643 27.6367 48.7095 27.6367C47.7761 27.6367 47.0934 27.2777 46.6626 26.4874C46.1959 25.7335 45.9805 24.5123 45.9805 22.8244C45.9805 21.1366 46.1959 19.9518 46.6626 19.1615Z" fill="#FF7044"/>
<path d="M69.8609 32.7351C67.2755 31.8017 63.3253 31.3345 57.9386 31.3345C52.5518 31.3345 48.5658 31.8012 46.0521 32.7351C43.4667 33.7045 42.2097 35.1051 42.2097 36.9366C42.2097 38.7681 43.4667 40.1688 46.0521 41.1381C48.5658 42.0715 52.5518 42.5388 57.9386 42.5388C63.3253 42.5388 67.2755 42.0721 69.8609 41.1381C72.3745 40.1688 73.6675 38.7681 73.6675 36.9366C73.6675 35.1051 72.3745 33.7045 69.8609 32.7351ZM65.3363 39.7374C63.8279 40.3837 61.3861 40.7427 57.9386 40.7427C54.491 40.7427 52.0133 40.3837 50.5408 39.7374C49.0325 39.0553 48.3144 38.1214 48.3144 36.9366C48.3144 35.7519 49.0325 34.8179 50.5408 34.1358C52.0133 33.4896 54.491 33.1306 57.9386 33.1306C61.3861 33.1306 63.8279 33.4896 65.3363 34.1358C66.8088 34.8179 67.5627 35.7519 67.5627 36.9366C67.5627 38.1214 66.8088 39.0553 65.3363 39.7374Z" fill="#FF7044"/>
<path d="M138.221 40.3483C138.221 40.8868 138.113 41.2817 137.898 41.4977C137.646 41.7131 137.252 41.8208 136.712 41.8208H133.768C133.194 41.8208 132.835 41.7131 132.619 41.4977C132.367 41.2823 132.26 40.8873 132.26 40.3483V12.2668C132.26 11.7283 132.367 11.3333 132.619 11.1174C132.834 10.902 133.193 10.7943 133.768 10.7943H136.712C137.251 10.7943 137.646 10.902 137.898 11.1174C138.113 11.3328 138.221 11.7277 138.221 12.2668V40.3488V40.3483Z" fill="#333333"/>
<path d="M124.209 41.349C125.599 41.1786 126.865 40.9581 128.059 40.7058C129.185 40.4333 130.138 40.1112 130.839 39.7532C131.14 39.6161 131.245 39.3845 131.118 39.0488L130.961 38.5553C130.835 38.2195 130.524 38.1295 130.075 38.2615C129.423 38.4465 128.702 38.6119 127.878 38.7474C127.019 38.8728 126.102 38.9436 125.194 38.98C124.207 39.0311 123.241 39.0129 122.293 38.9259C121.288 38.7843 120.361 38.6286 119.464 38.3692C118.411 38.0724 117.999 37.7669 117.904 37.686C117.656 37.4696 117.549 37.0398 117.549 36.3971V12.2668C117.549 11.7283 117.442 11.3333 117.226 11.1174C116.975 10.902 116.58 10.7943 116.041 10.7943H113.097C112.522 10.7943 112.163 10.902 111.947 11.1174C111.696 11.3328 111.588 11.7277 111.588 12.2668V37.368H111.59C111.61 38.7489 112.004 39.7891 112.774 40.4186C113.266 40.7988 113.898 41.0679 114.687 41.216C114.687 41.216 118.92 41.9978 124.209 41.349Z" fill="#333333"/>
<defs>
<linearGradient id="paint0_linear_479_1567" x1="24.1341" y1="7.17191" x2="22.3254" y2="7.16938" gradientUnits="userSpaceOnUse">
<stop stop-color="#FECF00"/>
<stop offset="1" stop-color="#FDC300"/>
</linearGradient>
</defs>
</svg>
